<svg width="217" height="216" viewBox="0 0 217 216" fill="none" xmlns="http://www.w3.org/2000/svg">
<path d="M0.700001 216V-8.58307e-06H171.4C178 -8.58307e-06 184 1.59999 189.4 4.79998C195 7.99999 199.4 12.4 202.6 18C205.8 23.4 207.4 29.4 207.4 36V81.9C207.4 84.7 207 87.5 206.2 90.3C205.6 92.9 204.7 95.4 203.5 97.8C207.9 104.4 211.2 110.1 213.4 114.9C215.6 119.7 216.7 124.6 216.7 129.6V180C216.7 186.6 215.1 192.7 211.9 198.3C208.7 203.7 204.3 208 198.7 211.2C193.3 214.4 187.3 216 180.7 216H0.700001ZM36.7 191.7H180.7C183.9 191.7 186.6 190.6 188.8 188.4C191.2 186 192.4 183.2 192.4 180V129.6C192.4 126.4 191.2 123.7 188.8 121.5C186.6 119.1 183.9 117.9 180.7 117.9H36.7C33.5 117.9 30.7 119.1 28.3 121.5C26.1 123.7 25 126.4 25 129.6V180C25 183.2 26.1 186 28.3 188.4C30.7 190.6 33.5 191.7 36.7 191.7ZM36.7 93.6H171.4C174.6 93.6 177.3 92.5 179.5 90.3C181.7 87.9 182.8 85.1 182.8 81.9V36C182.8 32.8 181.7 30.1 179.5 27.9C177.3 25.5 174.6 24.3 171.4 24.3H36.7C33.5 24.3 30.7 25.5 28.3 27.9C26.1 30.1 25 32.8 25 36V81.9C25 85.1 26.1 87.9 28.3 90.3C30.7 92.5 33.5 93.6 36.7 93.6Z" fill="#FF9142"/>
</svg>
